<svg class="svg-icon" style="width: 1em; height: 1em;vertical-align: middle;fill: currentColor;overflow: hidden;" viewBox="0 0 1024 1024" version="1.1" xmlns="http://www.w3.org/2000/svg"><path d="M496 0C222.048 0 0 222.048 0 496S222.048 992 496 992 992 769.952 992 496 769.952 0 496 0zM927.2 480l-191.872 0c-1.76-70.88-14.368-138.592-36.736-200.576 43.2-18.016 83.136-41.984 119.552-70.304C882.88 281.792 923.36 376.16 927.2 480zM478.304 927.104c-53.184-44.288-97.792-101.792-130.432-168.576 41.888-13.088 86.272-20.256 132.128-21.728l0 190.368C479.424 927.168 478.88 927.136 478.304 927.104zM513.632 64.896c60.352 50.24 109.6 117.536 142.912 196.032-45.632 15.584-94.112 24.64-144.576 26.24L511.968 64.8C512.576 64.832 513.088 64.864 513.632 64.896zM566.944 70.336c88.32 14.688 167.552 55.936 229.248 115.648-33.504 25.696-70.112 47.456-109.696 63.936C657.376 180.896 616.512 119.872 566.944 70.336zM480 64.8l0 222.368c-50.464-1.632-98.976-10.656-144.576-26.24 33.312-78.496 82.56-145.792 142.912-196.032C478.912 64.864 479.424 64.832 480 64.8zM305.472 249.952c-39.52-16.48-76.16-38.24-109.664-63.936 61.664-59.712 140.928-100.96 229.248-115.648C375.456 119.872 334.624 180.896 305.472 249.952zM323.36 290.432C372.704 307.552 425.28 317.536 480 319.2L480 480 288.672 480C290.4 412.992 302.272 348.96 323.36 290.432zM480 512l0 192.8c-50.464 1.536-99.264 9.792-145.248 24.608C307.04 663.424 290.688 589.92 288.672 512L480 512zM425.056 921.664c-79.136-13.152-151.008-47.616-209.44-97.664 31.52-21.856 65.6-40.352 102.016-54.4C345.536 827.456 382.048 878.816 425.056 921.664zM512 927.2l0-190.368c45.824 1.472 90.24 8.64 132.128 21.728-32.672 66.784-77.248 124.288-130.432 168.576C513.152 927.136 512.576 927.168 512 927.2zM674.368 769.6c36.384 14.048 70.432 32.576 102.016 54.4-58.432 50.016-130.304 84.512-209.44 97.664C609.952 878.816 646.432 827.456 674.368 769.6zM657.248 729.408c-46.016-14.816-94.816-23.072-145.248-24.608L512 512l191.328 0C701.312 589.92 684.928 663.424 657.248 729.408zM512 480 512 319.2c54.688-1.664 107.264-11.616 156.64-28.736 21.056 58.528 32.928 122.56 34.688 189.568L512 480.032zM173.888 209.12C210.304 237.44 250.24 261.408 293.408 279.424 271.04 341.408 258.432 409.12 256.672 480L64.8 480C68.64 376.16 109.12 281.792 173.888 209.12zM64.8 512l191.872 0c1.984 81.76 19.072 158.976 48.096 228.384-40.544 15.808-78.336 36.864-113.216 61.792C116.416 727.392 68.992 625.152 64.8 512zM800.448 802.144c-34.88-24.896-72.672-45.984-113.248-61.792 29.056-69.408 46.112-146.624 48.128-228.384l191.872 0C923.008 625.152 875.552 727.392 800.448 802.144z"  /></svg>